<?xml version="1.0" encoding="UTF-8"?>
<svg width="257.37mm" height="268.16mm" version="1.1" viewBox="0 0 257.37 268.16" xmlns="http://www.w3.org/2000/svg">
    <g transform="translate(464.33 140.22)">
        <g>
            <path d="m-219.53 60.903c-16.76 29.029-82.597 67.04-116.12 67.04-33.52 0-99.357-38.011-116.12-67.04s-16.76-105.05 0-134.08c16.76-29.029 82.597-67.04 116.12-67.04 33.52 0 99.357 38.011 116.12 67.04 16.76 29.029 16.76 105.05 0 134.08z" fill-rule="evenodd" opacity=".75"/>
            <g transform="matrix(1.0672 0 0 1.0672 26.783 -.78954)" fill="#ffdf6c" stroke-width=".93705">
                <g transform="matrix(1.938 0 0 2.2952 2157.5 -462.89)" aria-label="W">
                    <path d="m-1319.7 200.34-6.2751 19.222h-7.5962l-4.0293-33.258q-1.5523-0.19816-2.3449-1.0569-0.7927-0.89173-0.7927-2.2458 0-1.5853 1.0238-2.5431 1.0569-0.95779 3.5009-0.95779l9.0164 0.033q2.444 0 3.4678 0.92476 1.0569 0.92475 1.0569 2.444 0 1.5192-1.0569 2.477-1.0238 0.92476-3.4678 0.92476h-3.5339l2.2458 18.925 5.3174-15.754h7.0348l5.2843 15.754 2.2458-18.925h-3.5339q-2.444 0-3.5008-0.92476-1.0239-0.95779-1.0239-2.477 0-1.5192 1.0239-2.444 1.0568-0.95779 3.5008-0.95779l8.9834 0.033q2.444 0 3.4679 0.92476 1.0568 0.92475 1.0568 2.444 0 1.288-0.8257 2.2128-0.8256 0.92476-2.3779 1.189l-3.8972 33.258h-7.4641z" fill="#ffdf6c" stroke-width=".11755"/>
                </g>
                <g transform="matrix(3.8398 0 0 4.3028 3935.2 -2399.2)" aria-label="P">
                    <path d="m-1111.3 559.75v3.7172h3.6467q1.3037 0 1.8498 0.51089 0.5638 0.49327 0.5638 1.3036 0 0.79277-0.5638 1.3037-0.5461 0.49327-1.8498 0.49327h-7.8219q-1.3037 0-1.8674-0.49327-0.5461-0.51089-0.5461-1.3213 0-0.79277 0.5637-1.286 0.5638-0.51089 1.8498-0.51089h0.5637v-14.129h-0.5637q-1.3037 0-1.8674-0.49328-0.5461-0.51089-0.5461-1.3213t0.5461-1.3037q0.5637-0.51089 1.8674-0.51089l8.3152 0.0176q3.6643 0 5.796 2.0083 2.1493 1.9907 2.1493 4.8623 0 1.5855-0.7223 2.9949-0.5462 1.057-1.8322 2.0964-1.2684 1.0218-2.6073 1.5503-1.3213 0.5109-3.5058 0.5109zm0-3.6115h3.3472q2.3607 0 3.7348-1.057 1.3918-1.0746 1.3918-2.5721 0-1.2684-1.1275-2.2197-1.1099-0.95131-3.1887-0.95131h-4.1576z" fill="#ffdf6c" stroke-width=".060995"/>
                </g>
                <g transform="matrix(.28693 0 0 .33084 -242.4 15.392)">
                    <path d="m-101.45-24.687h37.02c10.285 0 18.564 8.2796 18.564 18.564v32.178c0 10.285-8.2796 18.564-18.564 18.564h-37.02c-10.285 0-18.564-8.2796-18.564-18.564v-32.178c0-10.285 8.2797-18.564 18.564-18.564z" fill="#ffdf6c" fill-rule="evenodd" style="paint-order:fill markers stroke"/>
                </g>
                <g transform="matrix(.20723 0 0 .23894 -226.62 -7.2221)">
                    <path d="m-112.09-14.844h37.02c10.285 0 18.564 8.2796 18.564 18.564v32.178c0 10.285-8.2796 18.564-18.564 18.564h-37.02c-10.285 0-18.564-8.2796-18.564-18.564v-32.178c0-10.285 8.2796-18.564 18.564-18.564z" fill="#ffdf6c" fill-rule="evenodd" style="paint-order:fill markers stroke"/>
                </g>
                <g transform="matrix(.23911 0 0 .2757 -245.57 -27.47)">
                    <path d="m-106.99-19.569h37.02c10.285 0 18.564 8.2796 18.564 18.564v32.178c0 10.285-8.2796 18.564-18.564 18.564h-37.02c-10.285 0-18.564-8.2796-18.564-18.564v-32.178c0-10.285 8.2796-18.564 18.564-18.564z" fill="#ffdf6c" fill-rule="evenodd" style="paint-order:fill markers stroke"/>
                </g>
                <g transform="matrix(.12753 0 0 .14704 -233.98 -45.918)">
                    <path d="m-136.03 7.3022h37.02c10.285 0 18.564 8.2796 18.564 18.564v32.178c0 10.285-8.2796 18.564-18.564 18.564h-37.02c-10.285 0-18.564-8.2796-18.564-18.564v-32.178c0-10.285 8.2796-18.564 18.564-18.564z" fill="#ffdf6c" fill-rule="evenodd" style="paint-order:fill markers stroke"/>
                </g>
            </g>
        </g>
    </g>
</svg>
